<?xml version="1.0" standalone="no"?>
<!DOCTYPE svg PUBLIC "-//W3C//DTD SVG 20010904//EN"
 "http://www.w3.org/TR/2001/REC-SVG-20010904/DTD/svg10.dtd">
<svg version="1.0" xmlns="http://www.w3.org/2000/svg"
 width="256.000000pt" height="256.000000pt" viewBox="0 0 256.000000 256.000000"
 preserveAspectRatio="xMidYMid meet">
<metadata>
Created by potrace 1.11, written by Peter Selinger 2001-2013
</metadata>
<g transform="translate(0.000000,256.000000) scale(0.100000,-0.100000)"
fill="#000000" stroke="none">
<path d="M1168 2194 c-172 -27 -344 -108 -470 -222 l-39 -35 -113 112 -112
112 -33 -258 c-19 -142 -35 -267 -37 -278 -8 -51 -19 -135 -40 -298 -6 -46 -5
-48 18 -43 12 3 43 8 68 11 25 3 56 7 70 10 13 2 42 7 65 10 22 3 65 10 95 15
30 5 69 12 85 14 17 3 44 7 60 10 17 3 53 8 80 12 28 3 52 7 55 9 3 2 29 6 59
10 30 4 63 9 75 11 12 2 41 7 66 10 25 3 47 8 49 10 3 3 -44 54 -104 114 -107
108 -109 109 -90 129 57 64 190 120 302 128 301 22 559 -224 547 -522 -3 -75
-7 -97 -32 -162 -32 -85 -67 -136 -132 -197 -234 -216 -616 -165 -775 104 -17
27 -33 50 -38 50 -8 0 -358 -167 -365 -175 -3 -2 10 -30 28 -62 222 -394 708
-569 1135 -408 220 82 422 274 517 490 55 124 70 199 74 359 1 82 -1 158 -6
171 -4 12 -11 37 -14 56 -22 139 -119 312 -246 440 -210 212 -505 309 -802
263z"/>
</g>
</svg>
